<svg width="232" height="48" viewBox="0 0 232 48" fill="none" xmlns="http://www.w3.org/2000/svg">
<path fill-rule="evenodd" clip-rule="evenodd" d="M10 0C4.47715 0 0 4.47715 0 10V38C0 43.5228 4.47715 48 10 48H88C93.5229 48 98 43.5229 98 38V10C98 4.47715 93.5229 0 88 0H10ZM81.5956 31.9462H85.9999V21.6811C85.9999 19.5535 85.3179 18.0181 83.9538 17.0749C82.5897 16.1317 80.8326 15.6602 78.6825 15.6602C75.7924 15.6602 73.3533 16.4937 71.365 18.1606L73.0296 20.9572C74.4631 19.707 76.093 19.0819 77.9195 19.0819C79.0293 19.0819 79.9194 19.3232 80.5899 19.8057C81.2603 20.2883 81.5956 20.9353 81.5956 21.7469V23.8855C80.4396 22.5913 78.6709 21.9443 76.2895 21.9443C74.7405 21.9443 73.3764 22.372 72.1973 23.2274C71.0413 24.0829 70.4633 25.366 70.4633 27.0769C70.4633 28.7219 71.0528 30.016 72.232 30.9592C73.4342 31.8804 74.7867 32.3411 76.2895 32.3411C78.6247 32.3411 80.3933 31.6611 81.5956 30.3012V31.9462ZM81.5956 28.1297C80.8789 29.0509 79.6997 29.5116 78.0582 29.5116C77.1565 29.5116 76.4051 29.3032 75.804 28.8864C75.2029 28.4697 74.9023 27.8994 74.9023 27.1756C74.9023 26.4298 75.2029 25.8486 75.804 25.4318C76.4051 24.9931 77.1565 24.7738 78.0582 24.7738C79.6997 24.7738 80.8789 25.2344 81.5956 26.1556V28.1297ZM65.4388 32.34C63.8898 32.34 62.7107 31.9671 61.9015 31.2213C61.0923 30.4756 60.6877 29.4008 60.6877 27.997V19.7059H57.9133V16.0539H60.6877V11.7109H65.1267V16.0539H68.5254V19.7059H65.1267V26.8784C65.1267 27.3829 65.2654 27.7996 65.5429 28.1286C65.8203 28.4576 66.1902 28.6222 66.6526 28.6222C67.3462 28.6222 67.8549 28.4686 68.1786 28.1615L69.1149 31.32C68.3057 32 67.0804 32.34 65.4388 32.34ZM51.0478 31.9462H55.4521V21.6811C55.4521 19.5535 54.7701 18.0181 53.406 17.0749C52.0419 16.1317 50.2848 15.6602 48.1347 15.6602C45.2446 15.6602 42.8055 16.4937 40.8172 18.1606L42.4818 20.9572C43.9152 19.707 45.5452 19.0819 47.3717 19.0819C48.4815 19.0819 49.3716 19.3232 50.0421 19.8057C50.7125 20.2883 51.0478 20.9353 51.0478 21.7469V23.8855C49.8918 22.5913 48.1231 21.9443 45.7417 21.9443C44.1927 21.9443 42.8286 22.372 41.6495 23.2274C40.4935 24.0829 39.9155 25.366 39.9155 27.0769C39.9155 28.7219 40.505 30.016 41.6842 30.9592C42.8864 31.8804 44.2389 32.3411 45.7417 32.3411C48.0769 32.3411 49.8455 31.6611 51.0478 30.3012V31.9462ZM51.0478 28.1297C50.3311 29.0509 49.1519 29.5116 47.5104 29.5116C46.6087 29.5116 45.8573 29.3032 45.2562 28.8864C44.6551 28.4697 44.3545 27.8994 44.3545 27.1756C44.3545 26.4298 44.6551 25.8486 45.2562 25.4318C45.8573 24.9931 46.6087 24.7738 47.5104 24.7738C49.1519 24.7738 50.3311 25.2344 51.0478 26.1556V28.1297ZM36.6225 31.9451H32.2181V10H36.6225V31.9451ZM16.4044 29.9066C17.7453 31.5297 19.4678 32.3413 21.5717 32.3413C23.7681 32.3413 25.5483 31.5955 26.9124 30.104C28.2996 28.6125 28.9932 26.5726 28.9932 23.9844C28.9932 21.3961 28.2996 19.3672 26.9124 17.8977C25.5483 16.4061 23.7681 15.6604 21.5717 15.6604C19.4447 15.6604 17.7222 16.461 16.4044 18.0622V16.0552H12V38.0003H16.4044V29.9066ZM23.2363 27.3403C22.4734 28.1957 21.4561 28.6234 20.1845 28.6234C19.4909 28.6234 18.7742 28.448 18.0343 28.097C17.3176 27.7461 16.7743 27.3184 16.4044 26.8139V21.1878C16.7743 20.6833 17.3176 20.2556 18.0343 19.9046C18.751 19.5537 19.4678 19.3782 20.1845 19.3782C21.4561 19.3782 22.4734 19.8059 23.2363 20.6614C24.0224 21.5168 24.4155 22.6245 24.4155 23.9844C24.4155 25.3662 24.0224 26.4849 23.2363 27.3403Z" fill="black"/>
<path d="M229.718 31.6614C228.197 33.2404 226.175 34.0299 223.654 34.0299C221.133 34.0299 219.112 33.2404 217.59 31.6614C216.091 30.0607 215.341 28.1032 215.341 25.7888C215.341 23.4743 216.091 21.5276 217.59 19.9486C219.112 18.3696 221.133 17.5801 223.654 17.5801C226.175 17.5801 228.197 18.3696 229.718 19.9486C231.239 21.5276 232 23.4743 232 25.7888C232 28.1032 231.239 30.0607 229.718 31.6614ZM220.72 29.0657C221.437 29.931 222.415 30.3636 223.654 30.3636C224.893 30.3636 225.871 29.931 226.588 29.0657C227.327 28.1789 227.697 27.0866 227.697 25.7888C227.697 24.5126 227.327 23.4419 226.588 22.5767C225.871 21.6898 224.893 21.2464 223.654 21.2464C222.415 21.2464 221.437 21.6898 220.72 22.5767C220.003 23.4419 219.644 24.5126 219.644 25.7888C219.644 27.0866 220.003 28.1789 220.72 29.0657Z" fill="black"/>
<path d="M212.241 33.6406H208.1V24.1665C208.1 22.2198 207.133 21.2464 205.199 21.2464C203.699 21.2464 202.504 21.8629 201.613 23.0958V33.6406H197.472V17.9694H201.613V20.0135C202.982 18.3912 204.819 17.5801 207.122 17.5801C208.818 17.5801 210.089 18.0235 210.937 18.9103C211.806 19.7972 212.241 21.0193 212.241 22.5767V33.6406Z" fill="black"/>
<path d="M192.118 31.6614C190.596 33.2404 188.575 34.0299 186.054 34.0299C183.533 34.0299 181.511 33.2404 179.99 31.6614C178.49 30.0607 177.74 28.1032 177.74 25.7888C177.74 23.4743 178.49 21.5276 179.99 19.9486C181.511 18.3696 183.533 17.5801 186.054 17.5801C188.575 17.5801 190.596 18.3696 192.118 19.9486C193.639 21.5276 194.4 23.4743 194.4 25.7888C194.4 28.1032 193.639 30.0607 192.118 31.6614ZM183.12 29.0657C183.837 29.931 184.815 30.3636 186.054 30.3636C187.293 30.3636 188.271 29.931 188.988 29.0657C189.727 28.1789 190.096 27.0866 190.096 25.7888C190.096 24.5126 189.727 23.4419 188.988 22.5767C188.271 21.6898 187.293 21.2464 186.054 21.2464C184.815 21.2464 183.837 21.6898 183.12 22.5767C182.402 23.4419 182.044 24.5126 182.044 25.7888C182.044 27.0866 182.402 28.1789 183.12 29.0657Z" fill="black"/>
<path d="M174.691 33.6406H170.518V23.7447C170.518 22.0792 169.735 21.2464 168.171 21.2464C167.497 21.2464 166.866 21.4303 166.28 21.798C165.715 22.1657 165.258 22.5875 164.91 23.0634V33.6406H160.737V23.7447C160.737 22.0792 159.955 21.2464 158.39 21.2464C157.738 21.2464 157.119 21.4303 156.532 21.798C155.945 22.1657 155.478 22.5983 155.13 23.0958V33.6406H150.99V17.9694H155.13V20.0135C155.521 19.4511 156.206 18.9103 157.184 18.3912C158.162 17.8505 159.194 17.5801 160.281 17.5801C162.563 17.5801 164.019 18.5318 164.65 20.4353C165.15 19.6566 165.888 18.986 166.867 18.4237C167.866 17.8613 168.931 17.5801 170.061 17.5801C171.539 17.5801 172.68 17.9802 173.485 18.7806C174.289 19.5592 174.691 20.7381 174.691 22.3171V33.6406Z" fill="black"/>
<path d="M128.548 39.773L129.167 36.0743C129.559 36.2473 129.993 36.3338 130.472 36.3338C131.58 36.3338 132.308 35.9553 132.656 35.1982L133.243 33.868L126.853 17.9697H131.287L135.394 28.8714L139.502 17.9697H143.968L136.568 36.204C136.025 37.5884 135.264 38.5509 134.286 39.0917C133.308 39.6541 132.08 39.9569 130.602 40.0002C129.841 40.0002 129.157 39.9245 128.548 39.773Z" fill="black"/>
<path d="M114.14 28.612C114.488 29.1095 114.999 29.5313 115.673 29.8774C116.346 30.2019 117.02 30.3641 117.694 30.3641C118.889 30.3641 119.856 29.9531 120.595 29.1312C121.334 28.2876 121.704 27.1845 121.704 25.8217C121.704 24.459 121.334 23.3559 120.595 22.5123C119.856 21.6687 118.889 21.2469 117.694 21.2469C117.02 21.2469 116.346 21.42 115.673 21.7661C114.999 22.1122 114.488 22.5448 114.14 23.0639V28.612ZM114.14 33.6411H110V12H114.14V19.9816C115.379 18.3809 116.998 17.5806 118.998 17.5806C121.041 17.5806 122.714 18.3269 124.018 19.8193C125.323 21.3118 125.975 23.3126 125.975 25.8217C125.975 28.3741 125.323 30.3857 124.018 31.8566C122.714 33.3058 121.041 34.0304 118.998 34.0304C117.042 34.0304 115.423 33.2301 114.14 31.6295V33.6411Z" fill="black"/>
</svg>
